<svg id="Calque_1" data-name="Calque 1" xmlns="http://www.w3.org/2000/svg" xmlns:xlink="http://www.w3.org/1999/xlink" viewBox="0 0 771.69 647.92"><defs><style>.cls-1{fill:none;}.cls-2{fill:#fff;}.cls-10,.cls-11,.cls-3,.cls-4,.cls-5,.cls-6,.cls-7,.cls-8,.cls-9{opacity:0.74;}.cls-3{fill:url(#radial-gradient);}.cls-4{fill:url(#radial-gradient-2);}.cls-5{fill:url(#radial-gradient-3);}.cls-6{fill:url(#radial-gradient-4);}.cls-7{fill:url(#radial-gradient-5);}.cls-8{fill:url(#radial-gradient-6);}.cls-9{fill:url(#radial-gradient-7);}.cls-10{fill:url(#radial-gradient-8);}.cls-11{fill:url(#radial-gradient-9);}.cls-12{fill:url(#radial-gradient-10);}.cls-13{isolation:isolate;}.cls-14{clip-path:url(#clip-path);}.cls-15{fill:#787879;}.cls-16{clip-path:url(#clip-path-2);}.cls-17{fill:#7c7d7d;}.cls-18{fill:#818182;}.cls-19{fill:#858687;}.cls-20{fill:#8a8b8b;}.cls-21{fill:#8f8f90;}.cls-22{fill:#939494;}.cls-23{fill:#989899;}.cls-24{fill:#9c9d9e;}.cls-25{fill:#a1a2a2;}.cls-26{fill:#a6a6a7;}.cls-27{fill:#aaabac;}.cls-28{fill:#afb0b0;}.cls-29{fill:#b3b4b5;}.cls-30{fill:#b8b9ba;}.cls-31{fill:#bdbdbe;}.cls-32{fill:#c1c2c3;}.cls-33{fill:#c6c7c8;}.cls-34{fill:#7a7b7b;}.cls-35{fill:#b9babb;}.cls-36{fill:#808081;}.cls-37{clip-path:url(#clip-path-3);}.cls-38{clip-path:url(#clip-path-4);}.cls-39{clip-path:url(#clip-path-5);}.cls-40{fill:#cacbcc;}.cls-41{fill:#c2c3c4;}.cls-42{clip-path:url(#clip-path-6);}.cls-43{clip-path:url(#clip-path-7);}.cls-44{clip-path:url(#clip-path-8);}.cls-45{clip-path:url(#clip-path-9);}.cls-46{clip-path:url(#clip-path-10);}.cls-47{clip-path:url(#clip-path-11);}.cls-48{clip-path:url(#clip-path-12);}.cls-49{clip-path:url(#clip-path-13);}.cls-50{clip-path:url(#clip-path-14);}.cls-51{clip-path:url(#clip-path-15);}.cls-52{clip-path:url(#clip-path-16);}.cls-53{clip-path:url(#clip-path-17);}.cls-54{fill:#c7c8c9;}.cls-55{fill:#e6e7e8;}</style><radialGradient id="radial-gradient" cx="487.03" cy="24.24" r="47.75" gradientUnits="userSpaceOnUse"><stop offset="0" stop-color="#e6e6e6"/><stop offset="0.61" stop-color="#ccc"/><stop offset="1" stop-color="#b3b3b3"/></radialGradient><radialGradient id="radial-gradient-2" cx="708.59" cy="281.83" r="84.49" xlink:href="#radial-gradient"/><radialGradient id="radial-gradient-3" cx="387.56" cy="572.86" r="84.49" xlink:href="#radial-gradient"/><radialGradient id="radial-gradient-4" cx="54.52" cy="374.84" r="84.49" xlink:href="#radial-gradient"/><radialGradient id="radial-gradient-5" cx="526.37" cy="128.53" r="229.85" xlink:href="#radial-gradient"/><radialGradient id="radial-gradient-6" cx="337.95" cy="72.87" r="125.65" xlink:href="#radial-gradient"/><radialGradient id="radial-gradient-7" cx="123.71" cy="159.84" r="274.41" xlink:href="#radial-gradient"/><radialGradient id="radial-gradient-8" cx="168.4" cy="419.51" r="210.61" xlink:href="#radial-gradient"/><radialGradient id="radial-gradient-9" cx="438.74" cy="381.52" r="236.66" xlink:href="#radial-gradient"/><radialGradient id="radial-gradient-10" cx="256.48" cy="239.69" r="390.5" gradientUnits="userSpaceOnUse"><stop offset="0" stop-color="#0081c6" stop-opacity="0.5"/><stop offset="0.45" stop-color="#0081c6"/><stop offset="1" stop-color="#0081c6"/></radialGradient><clipPath id="clip-path" transform="translate(-14.16 -9.04)"><path class="cls-1" d="M380.46,223.33a20.71,20.71,0,0,0-4.27-4l5.79,4.06Z"/></clipPath><clipPath id="clip-path-2" transform="translate(-14.16 -9.04)"><path class="cls-1" d="M375.65,219a8.39,8.39,0,0,0,2.18,1.13,6.56,6.56,0,0,0,1.15.29c.51.1,1,.16,1.55.24.19,0,.64,1,1.45,2.78Z"/></clipPath><clipPath id="clip-path-3" transform="translate(-14.16 -9.04)"><path class="cls-1" d="M424.53,471.3l4.47,3.34c-9.09,1.45-16.73,3.63-24.37,3.63-12.73,0-23.64-5.09-23.64-24.73h4c.13,16.74,8.66,20.67,19.64,20.73C411.7,474.28,419.15,472.16,424.53,471.3Z"/></clipPath><clipPath id="clip-path-4" transform="translate(-14.16 -9.04)"><path class="cls-1" d="M376.89,432.69H381c-14.44,31.2-51.36,47.4-87.16,47.4-30.92,0-83.66-12.37-83.66-35.28,0-6.55,5.45-15.64,8.73-21.46l2.34,4c-2.07,3.81-7.13,12.22-7.07,17.46-.44,18.85,49.49,31.27,79.66,31.28C328.41,476.08,363.75,460.49,376.89,432.69Z"/></clipPath><clipPath id="clip-path-5" transform="translate(-14.16 -9.04)"><path class="cls-1" d="M219.59,427.35l1.85-4c1.44,1.69,28.74,33.83,77.48,33.83,35.65,0,47.65-18.92,47.65-38.56,0-28.74-32.65-41.2-65.29-56.43S216,329,216,289.12c0-48,45.11-74.57,91-74.57v4c-44.19,0-87,25.38-87,70.57-.06,37.22,30.9,54.45,63,69.44,32.87,15.34,67.42,28.23,67.6,60.06,0,21.64-13.47,42.69-51.65,42.56C248.34,461.18,220,427.76,219.59,427.35Z"/></clipPath><clipPath id="clip-path-6" transform="translate(-14.16 -9.04)"><path class="cls-1" d="M419.13,370.55l4.05,4.78c.37,32.73,1.46,65.84,5.82,99.31l-4.47-3.34C420.64,441.46,419.55,408.2,419.13,370.55Z"/></clipPath><clipPath id="clip-path-7" transform="translate(-14.16 -9.04)"><path class="cls-1" d="M418.82,361.62l4-3.39a76.62,76.62,0,0,0,12.73.73v4A89.5,89.5,0,0,1,418.82,361.62Z"/></clipPath><clipPath id="clip-path-8" transform="translate(-14.16 -9.04)"><path class="cls-1" d="M374.57,248.37l4-.25c-1.79,8-6.83,16.89-13.48,23.54l-1.66-4C368.43,262.69,373.09,254.43,374.57,248.37Z"/></clipPath><clipPath id="clip-path-9" transform="translate(-14.16 -9.04)"><path class="cls-1" d="M364.74,267.66l-2.17,4c-1.21-1.87-24.36-37.47-63.28-37.47-24.75,0-42.56,17.46-42.56,40.74,0,24.6,24.53,36.21,52.33,48.29s58.86,24.61,71.93,51.06l-4,.94c-11.84-24.12-41.92-36.34-69.52-48.33-28.26-12.26-54.61-24.48-54.74-52,0-25.55,19.63-44.76,46.56-44.74C340.49,230.26,364.62,267.47,364.74,267.66Z"/></clipPath><clipPath id="clip-path-10" transform="translate(-14.16 -9.04)"><path class="cls-1" d="M377.77,236.39c.3,3.65.55,7.27.83,11.73l-4,.25c-.27-4.53-.52-8.41-.38-10Z"/></clipPath><clipPath id="clip-path-11" transform="translate(-14.16 -9.04)"><path class="cls-1" d="M385,340.77h-4c0-15.09-.18-29.92-.5-43.88s-.78-27.05-1.32-38.69c-.19-3.69-.38-7-.57-10.08-.28-4.58-.56-8.46-.83-11.73l4-.33c.27,3.3.57,7.18.83,11.82.2,3,.4,6.39.58,10.12.54,11.68,1,24.78,1.32,38.8S385,325.62,385,340.77Z"/></clipPath><clipPath id="clip-path-12" transform="translate(-14.16 -9.04)"><path class="cls-1" d="M420.37,235.29l3.91,4c-.08,3.07-1.46,61.47-1.46,91.66h-4C418.82,300.7,420.2,242.27,420.37,235.29Z"/></clipPath><clipPath id="clip-path-13" transform="translate(-14.16 -9.04)"><path class="cls-1" d="M435.55,363v-4c41.84,0,64-30.92,64-61.47,0-29.47-20.37-58.2-64-58.2v-4c46.14-.07,68,30.74,68,62.2C503.58,330,479.89,363,435.55,363Z"/></clipPath><clipPath id="clip-path-14" transform="translate(-14.16 -9.04)"><path class="cls-1" d="M449.74,224v-4c66.2,0,95.3,37.1,95.3,74.2,0,54.56-52.74,82.58-102.21,82.58a116.25,116.25,0,0,1-19.65-1.46l-4.05-4.78a126.09,126.09,0,0,0,23.7,2.24c47.92,0,98.27-26.94,98.21-78.58C541.05,259.28,513.64,224.11,449.74,224Z"/></clipPath><clipPath id="clip-path-15" transform="translate(-14.16 -9.04)"><path class="cls-1" d="M380.46,223.33a21.55,21.55,0,0,0-4.93-4.41c.7.05,13.83,1.09,22.56,1.09v4C390.74,224,380.45,223.32,380.46,223.33Z"/></clipPath><clipPath id="clip-path-16" transform="translate(-14.16 -9.04)"><path class="cls-1" d="M375.65,219a8.39,8.39,0,0,0,2.18,1.13,6.56,6.56,0,0,0,1.15.29c.51.1,1,.16,1.55.24-.44-.07.37,4.56,1.23,15.4l-4,.33c-1.25-15.3-2.19-17.36-2.24-17.47Z"/></clipPath><clipPath id="clip-path-17" transform="translate(-14.16 -9.04)"><path class="cls-1" d="M306.93,218.55v-4c17.64,0,62,5.87,70.84,21.84l-3.58,2C366.9,224.49,324.09,218.55,306.93,218.55Z"/></clipPath></defs><title>LogoSamanthaPotier</title><path class="cls-2" d="M499.46,71.77A31.37,31.37,0,1,0,468,40.51,31.38,31.38,0,0,0,499.46,71.77Z" transform="translate(-14.16 -9.04)"/><path class="cls-2" d="M730.17,254.94c-.57,0-1.13,0-1.69.05a150.79,150.79,0,0,0,8-49.28c-.39-83.24-68.17-150.61-151.46-150.33a150.83,150.83,0,0,0-123.42,64.78q-4.39-1.62-8.85-3.08c0-.67.05-1.34,0-2A82.53,82.53,0,0,0,289.32,99.56a179.27,179.27,0,0,0-95.52-27c-99.56.35-180,81.45-179.64,180.84a179.32,179.32,0,0,0,32.78,103A55.48,55.48,0,0,0,76.52,458.94a56.11,56.11,0,0,0,11.82-1.33A138.31,138.31,0,0,0,325.08,583.73a241.68,241.68,0,0,0,30.3,4.71,55.49,55.49,0,1,0,108.24,24.41A155.41,155.41,0,0,0,619.28,362.41c.18-3,.32-6,.39-9a150.39,150.39,0,0,0,57.51-27.14,55.49,55.49,0,1,0,53-71.35Z" transform="translate(-14.16 -9.04)"/><path class="cls-3" d="M530.69,40.27A31.37,31.37,0,1,1,499.22,9,31.38,31.38,0,0,1,530.69,40.27Z" transform="translate(-14.16 -9.04)"/><path class="cls-4" d="M785.84,310.2a55.49,55.49,0,1,1-55.67-55.26A55.53,55.53,0,0,1,785.84,310.2Z" transform="translate(-14.16 -9.04)"/><path class="cls-5" d="M464.81,601.23A55.49,55.49,0,1,1,409.14,546,55.53,55.53,0,0,1,464.81,601.23Z" transform="translate(-14.16 -9.04)"/><path class="cls-6" d="M131.78,403.21A55.5,55.5,0,1,1,76.1,348,55.53,55.53,0,0,1,131.78,403.21Z" transform="translate(-14.16 -9.04)"/><path class="cls-7" d="M736.53,205.71A151.08,151.08,0,0,1,586.2,357.32c-83.38.3-151.32-67.06-151.6-150.47-.29-83.25,67.08-151.18,150.47-151.47S736.14,122.47,736.53,205.71Z" transform="translate(-14.16 -9.04)"/><path class="cls-8" d="M452.84,115.07A82.53,82.53,0,1,1,370,32.88,82.59,82.59,0,0,1,452.84,115.07Z" transform="translate(-14.16 -9.04)"/><path class="cls-9" d="M374.63,252c.33,99.61-80.06,180.55-179.47,181-99.56.36-180.67-80.06-181-179.65C13.81,154,94.24,72.86,193.8,72.51S374.16,152.61,374.63,252Z" transform="translate(-14.16 -9.04)"/><path class="cls-10" d="M361,490.24A138.33,138.33,0,1,1,222.19,352.49,138.43,138.43,0,0,1,361,490.24Z" transform="translate(-14.16 -9.04)"/><path class="cls-11" d="M655.13,461a155.53,155.53,0,0,1-154.78,156.1c-85.86.31-155.81-69-156.1-154.93-.3-85.72,69.07-155.66,154.93-156S654.73,375.28,655.13,461Z" transform="translate(-14.16 -9.04)"/><path class="cls-2" d="M619.75,346.52C620.33,480.17,512.21,589,378.43,589.46c-133.63.45-242.5-107.53-243-241.15-.59-133.81,107.38-242.67,241.19-243.13S619.33,212.73,619.75,346.52Z" transform="translate(-14.16 -9.04)"/><path class="cls-12" d="M619.75,346.52C620.33,480.17,512.21,589,378.43,589.46c-133.63.45-242.5-107.53-243-241.15-.59-133.81,107.38-242.67,241.19-243.13S619.33,212.73,619.75,346.52Z" transform="translate(-14.16 -9.04)"/><g class="cls-13"><g class="cls-13"><g class="cls-14"><g class="cls-13"><path class="cls-15" d="M376.19,219.38l5.79,4.06-1.52-.11-3.15-3.86-1.12-.09" transform="translate(-14.16 -9.04)"/></g></g></g><g class="cls-13"><g class="cls-16"><g class="cls-13"><path class="cls-15" d="M375.9,219.93l4.63.73s.09.05.15.13l-4.86-1.24.08.38" transform="translate(-14.16 -9.04)"/><path class="cls-17" d="M375.82,219.55l4.86,1.24h0l-4.88-1.27v0" transform="translate(-14.16 -9.04)"/><path class="cls-18" d="M375.81,219.53l4.88,1.27v0l-4.89-1.31v0" transform="translate(-14.16 -9.04)"/><path class="cls-19" d="M375.81,219.51l4.89,1.31v0l-4.91-1.35v0" transform="translate(-14.16 -9.04)"/><path class="cls-20" d="M375.8,219.49l4.91,1.35h0l-4.92-1.37h0" transform="translate(-14.16 -9.04)"/><path class="cls-21" d="M375.8,219.48l4.92,1.37,0,0-4.95-1.41v0" transform="translate(-14.16 -9.04)"/><path class="cls-22" d="M375.79,219.46l4.95,1.41v0l-5-1.45v0" transform="translate(-14.16 -9.04)"/><path class="cls-23" d="M375.79,219.44l5,1.45v0l-5-1.48h0" transform="translate(-14.16 -9.04)"/><path class="cls-24" d="M375.78,219.43l5,1.48v0l-5-1.52v0" transform="translate(-14.16 -9.04)"/><path class="cls-25" d="M375.78,219.41l5,1.52,0,0-5-1.56v0" transform="translate(-14.16 -9.04)"/><path class="cls-26" d="M375.78,219.39l5,1.56v0l-5-1.59h0" transform="translate(-14.16 -9.04)"/><path class="cls-27" d="M375.77,219.38l5,1.59v0l-5-1.64v0" transform="translate(-14.16 -9.04)"/><path class="cls-28" d="M375.77,219.36l5,1.64v0l-5.06-1.67h0" transform="translate(-14.16 -9.04)"/><path class="cls-29" d="M375.76,219.35l5.06,1.67,0,.06-5.1-1.76v0" transform="translate(-14.16 -9.04)"/><path class="cls-30" d="M375.76,219.32l5.1,1.76s0,.08.07.12l-5.19-1.94,0,.06" transform="translate(-14.16 -9.04)"/><path class="cls-31" d="M375.74,219.26l5.19,1.94a.91.91,0,0,0,.07.14l-5.28-2.13,0,0" transform="translate(-14.16 -9.04)"/><path class="cls-32" d="M375.72,219.21l5.28,2.13c.09.17.18.37.29.6l-5.61-2.86a.68.68,0,0,1,0,.13" transform="translate(-14.16 -9.04)"/><path class="cls-33" d="M375.68,219.08l5.61,2.86c.2.41.42.91.69,1.5L375.65,219l0,.08" transform="translate(-14.16 -9.04)"/></g></g></g><polygon class="cls-34" points="204.74 414.3 207.29 414.3 205.44 418.3 207.08 418.3 204.74 414.3"/><polygon class="cls-35" points="350.96 262.62 348.42 262.62 350.59 258.62 349.31 258.62 350.96 262.62"/><rect class="cls-36" x="204.74" y="414.3" width="2.55"/><rect class="cls-36" x="383.93" y="210.97" width="51.65"/><g class="cls-13"><g class="cls-37"><g class="cls-13"><path class="cls-15" d="M424.53,471.3l4.47,3.34c-9.09,1.45-16.73,3.63-24.37,3.63-12.73,0-23.64-5.09-23.64-24.73h4c.13,16.74,8.66,20.67,19.64,20.73,7.07,0,14.52-2.11,19.9-3" transform="translate(-14.16 -9.04)"/></g></g></g><rect class="cls-15" x="366.83" y="423.65" width="4" height="20.85"/><g class="cls-13"><g class="cls-38"><g class="cls-13"><path class="cls-23" d="M376.89,432.69H381c-.58,1.25-1.19,2.46-1.83,3.66l-3.94-.39c.59-1.07,1.15-2.16,1.67-3.27" transform="translate(-14.16 -9.04)"/><path class="cls-22" d="M375.22,436l3.94.39q-1.26,2.34-2.7,4.56l-3.73-.87q1.32-2,2.49-4.08" transform="translate(-14.16 -9.04)"/><path class="cls-21" d="M372.73,440l3.73.87q-1.68,2.59-3.59,5l-3.48-1.37q1.78-2.2,3.34-4.54" transform="translate(-14.16 -9.04)"/><path class="cls-20" d="M369.39,444.58l3.48,1.37a71.47,71.47,0,0,1-5.07,5.81l-3.16-1.92a67.3,67.3,0,0,0,4.75-5.26" transform="translate(-14.16 -9.04)"/><path class="cls-19" d="M364.64,449.84l3.16,1.92a77.57,77.57,0,0,1-7.41,6.72L357.64,456a73.36,73.36,0,0,0,7-6.12" transform="translate(-14.16 -9.04)"/><path class="cls-18" d="M357.64,456l2.75,2.52a89.46,89.46,0,0,1-11.81,7.92l-2.17-3.16A82.81,82.81,0,0,0,357.64,456" transform="translate(-14.16 -9.04)"/><path class="cls-17" d="M346.41,463.24l2.17,3.16a103.81,103.81,0,0,1-20.92,8.79l-1.26-3.75a101.5,101.5,0,0,0,20-8.2" transform="translate(-14.16 -9.04)"/><path class="cls-15" d="M326.4,471.44l1.26,3.75a118.87,118.87,0,0,1-33.83,4.9c-30.92,0-83.66-12.37-83.66-35.28,0-3.44,1.5-7.57,3.4-11.57l3.56,1.83c-1.62,3.37-3,7-3,9.74-.44,18.85,49.49,31.27,79.66,31.28a116.5,116.5,0,0,0,32.57-4.65" transform="translate(-14.16 -9.04)"/><path class="cls-17" d="M217.13,435.07l-3.56-1.83c1.72-3.62,3.77-7.13,5.33-9.89l2.34,4c-1,1.81-2.65,4.66-4.11,7.72" transform="translate(-14.16 -9.04)"/></g></g></g><g class="cls-13"><g class="cls-39"><g class="cls-13"><path class="cls-33" d="M219.59,427.35l1.85-4,.17.18-1.93,3.91-.09-.09" transform="translate(-14.16 -9.04)"/><path class="cls-40" d="M219.68,427.44l1.93-3.91a70.84,70.84,0,0,0,6.17,6.25l-2.28,3.46a67.42,67.42,0,0,1-5.82-5.8" transform="translate(-14.16 -9.04)"/><path class="cls-33" d="M225.5,433.24l2.28-3.46a106.09,106.09,0,0,0,17.31,12.73l-1.94,3.55a108.23,108.23,0,0,1-17.65-12.82" transform="translate(-14.16 -9.04)"/><path class="cls-32" d="M243.15,446.06l1.94-3.55a106.64,106.64,0,0,0,12.34,6.24l-1.55,3.72a111,111,0,0,1-12.73-6.41" transform="translate(-14.16 -9.04)"/><path class="cls-31" d="M255.88,452.47l1.55-3.72a100.82,100.82,0,0,0,10.67,3.89l-1.16,3.84a110.77,110.77,0,0,1-11.06-4" transform="translate(-14.16 -9.04)"/><path class="cls-30" d="M266.94,456.48l1.16-3.84c3.13,1,6.42,1.79,9.84,2.48l-.79,3.92c-3.56-.71-7-1.58-10.21-2.56" transform="translate(-14.16 -9.04)"/><path class="cls-29" d="M277.15,459l.79-3.92q4.5.9,9.33,1.43l-.44,4c-3.34-.36-6.57-.87-9.68-1.49" transform="translate(-14.16 -9.04)"/><path class="cls-28" d="M286.83,460.53l.44-4c3,.33,6.14.54,9.35.6l-.09,4c-3.33-.07-6.57-.28-9.7-.62" transform="translate(-14.16 -9.04)"/><path class="cls-27" d="M296.53,461.15l.09-4c.76,0,1.53,0,2.3,0,2.06,0,4-.07,5.95-.19l.43,4c-2.05.13-4.17.19-6.38.19-.8,0-1.6,0-2.39,0" transform="translate(-14.16 -9.04)"/><path class="cls-26" d="M305.3,461l-.43-4c2.21-.14,4.31-.37,6.31-.66l.9,3.95c-2.16.32-4.41.56-6.78.71" transform="translate(-14.16 -9.04)"/><path class="cls-25" d="M312.08,460.28l-.9-3.95q2.7-.4,5.18-1l1.29,3.85c-1.77.43-3.63.78-5.57,1.08" transform="translate(-14.16 -9.04)"/><path class="cls-24" d="M317.65,459.2l-1.29-3.85c1.53-.36,3-.77,4.38-1.22l1.65,3.74c-1.51.49-3.09.94-4.74,1.33" transform="translate(-14.16 -9.04)"/><path class="cls-23" d="M322.39,457.87l-1.65-3.74c1.34-.43,2.61-.9,3.83-1.42l2,3.59c-1.32.57-2.7,1.09-4.14,1.57" transform="translate(-14.16 -9.04)"/><path class="cls-22" d="M326.53,456.3l-2-3.59q1.79-.75,3.42-1.62l2.25,3.42c-1.18.64-2.42,1.24-3.71,1.79" transform="translate(-14.16 -9.04)"/><path class="cls-21" d="M330.24,454.51,328,451.09a35.57,35.57,0,0,0,3.14-1.86l2.52,3.23c-1.08.72-2.22,1.41-3.41,2.05" transform="translate(-14.16 -9.04)"/><path class="cls-20" d="M333.65,452.46l-2.52-3.23a35.52,35.52,0,0,0,3-2.18l2.78,3c-1,.84-2.09,1.65-3.23,2.42" transform="translate(-14.16 -9.04)"/><path class="cls-19" d="M336.88,450l-2.78-3a33.73,33.73,0,0,0,2.9-2.67l3,2.7a37.18,37.18,0,0,1-3.16,3" transform="translate(-14.16 -9.04)"/><path class="cls-18" d="M340,447.08l-3-2.7a32.31,32.31,0,0,0,2.89-3.46l3.32,2.34a37.76,37.76,0,0,1-3.17,3.82" transform="translate(-14.16 -9.04)"/><path class="cls-17" d="M343.21,443.26l-3.32-2.34a33.18,33.18,0,0,0,3.14-5.34l3.63,1.76a36.68,36.68,0,0,1-3.45,5.92" transform="translate(-14.16 -9.04)"/><path class="cls-15" d="M346.66,437.34,343,435.58a39.83,39.83,0,0,0,3.54-17c0-28.74-32.65-41.2-65.29-56.43S216,329,216,289.12a67.21,67.21,0,0,1,6.21-28.79l3.66,1.65A63,63,0,0,0,220,289.12c-.06,37.22,30.9,54.45,63,69.44,32.87,15.34,67.42,28.23,67.6,60.06a44,44,0,0,1-3.91,18.72" transform="translate(-14.16 -9.04)"/><path class="cls-17" d="M225.85,262l-3.66-1.65a64.47,64.47,0,0,1,6.36-10.77l3.35,2.24A60.86,60.86,0,0,0,225.85,262" transform="translate(-14.16 -9.04)"/><path class="cls-18" d="M231.9,251.8l-3.35-2.24A69.08,69.08,0,0,1,235,242l3,2.65a64.93,64.93,0,0,0-6.09,7.18" transform="translate(-14.16 -9.04)"/><path class="cls-19" d="M238,244.62,235,242a76.62,76.62,0,0,1,6.57-6l2.73,3a70.57,70.57,0,0,0-6.26,5.69" transform="translate(-14.16 -9.04)"/><path class="cls-20" d="M244.25,238.93l-2.73-3a84.19,84.19,0,0,1,7-5.06l2.4,3.22a77.86,77.86,0,0,0-6.63,4.81" transform="translate(-14.16 -9.04)"/><path class="cls-21" d="M250.88,234.12l-2.4-3.22q3.56-2.33,7.37-4.32l2.07,3.44q-3.65,1.9-7,4.1" transform="translate(-14.16 -9.04)"/><path class="cls-22" d="M257.92,230l-2.07-3.44q3.81-2,7.84-3.66l1.73,3.62q-3.85,1.59-7.5,3.48" transform="translate(-14.16 -9.04)"/><path class="cls-23" d="M265.42,226.54l-1.73-3.62q4.06-1.69,8.31-3l1.37,3.77c-2.71.86-5.37,1.82-7.95,2.89" transform="translate(-14.16 -9.04)"/><path class="cls-24" d="M273.37,223.65,272,219.88q4.31-1.37,8.78-2.39l1,3.88c-2.85.65-5.66,1.41-8.41,2.28" transform="translate(-14.16 -9.04)"/><path class="cls-25" d="M281.78,221.37l-1-3.88c3-.7,6.11-1.27,9.22-1.72l.64,3.95c-3,.43-5.95,1-8.86,1.65" transform="translate(-14.16 -9.04)"/><path class="cls-26" d="M290.64,219.72l-.64-3.95q4.77-.69,9.62-1l.26,4c-3.1.2-6.19.51-9.24.95" transform="translate(-14.16 -9.04)"/><path class="cls-27" d="M299.88,218.77l-.26-4q3.64-.22,7.31-.23v4q-3.54,0-7.05.22" transform="translate(-14.16 -9.04)"/></g></g></g><polygon class="cls-35" points="207.08 418.3 204.74 414.3 207.29 414.3 205.44 418.3 207.08 418.3"/><polygon class="cls-41" points="362.83 366.17 366.83 365.24 366.83 423.65 362.74 423.65 362.83 366.17"/><rect class="cls-15" x="366.83" y="365.24" width="4" height="58.41"/><g class="cls-13"><g class="cls-42"><g class="cls-13"><path class="cls-29" d="M419.13,370.55l4.05,4.78c.13,11.46.35,23,.76,34.51l-4-1.33c-.41-12.14-.64-24.78-.78-38" transform="translate(-14.16 -9.04)"/><path class="cls-30" d="M419.91,408.51l4,1.33c.77,21.44,2.23,43,5.06,64.8l-4.47-3.34c-2.53-19.4-3.87-40.24-4.62-62.79" transform="translate(-14.16 -9.04)"/></g></g></g><g class="cls-13"><g class="cls-43"><g class="cls-13"><path class="cls-29" d="M418.82,361.62l4-3.39c.79.13,1.59.24,2.38.33l-2.3,3.67c-1.26-.17-2.61-.37-4.08-.61" transform="translate(-14.16 -9.04)"/><path class="cls-28" d="M422.9,362.23l2.3-3.67c2.14.24,4.26.34,6.33.37l-.24,4a82.9,82.9,0,0,1-8.39-.68" transform="translate(-14.16 -9.04)"/><path class="cls-27" d="M431.29,362.91l.24-4c1.37,0,2.72,0,4,0v4c-1.33,0-2.71,0-4.26,0" transform="translate(-14.16 -9.04)"/></g></g></g><rect class="cls-15" x="366.83" y="331.73" width="4" height="33.51"/><polygon class="cls-41" points="404.66 321.91 408.66 321.91 408.66 349.19 404.66 352.58 404.66 321.91"/><g class="cls-13"><g class="cls-44"><g class="cls-13"><path class="cls-26" d="M374.57,248.37l4-.25c-.13.59-.28,1.19-.45,1.79l-4-.15c.14-.48.27-.94.38-1.39" transform="translate(-14.16 -9.04)"/><path class="cls-25" d="M374.19,249.76l4,.15c-.3,1.06-.65,2.13-1,3.2l-3.82-.78c.35-.88.65-1.74.91-2.57" transform="translate(-14.16 -9.04)"/><path class="cls-24" d="M373.28,252.33l3.82.78c-.49,1.32-1.06,2.65-1.69,4l-3.6-1.45c.55-1.12,1-2.23,1.47-3.31" transform="translate(-14.16 -9.04)"/><path class="cls-23" d="M371.81,255.64l3.6,1.45c-.7,1.45-1.48,2.9-2.33,4.32l-3.27-2.11c.72-1.21,1.39-2.44,2-3.66" transform="translate(-14.16 -9.04)"/><path class="cls-22" d="M369.81,259.3l3.27,2.11q-1.31,2.18-2.83,4.25l-2.78-2.79c.82-1.14,1.61-2.35,2.34-3.57" transform="translate(-14.16 -9.04)"/><path class="cls-21" d="M367.47,262.87l2.78,2.79a49,49,0,0,1-3.35,4.12l-2.08-3.56a41.58,41.58,0,0,0,2.65-3.35" transform="translate(-14.16 -9.04)"/><path class="cls-20" d="M364.82,266.22l2.08,3.56c-.58.64-1.17,1.27-1.78,1.88l-1.66-4c.46-.46.91-.94,1.36-1.44" transform="translate(-14.16 -9.04)"/></g></g></g><g class="cls-13"><g class="cls-45"><g class="cls-13"><path class="cls-15" d="M364.74,267.66l-2.17,4c-1.21-1.87-24.36-37.47-63.28-37.47A48.09,48.09,0,0,0,286.2,236L285,232.11a52.55,52.55,0,0,1,14.26-1.92c41.2.07,65.33,37.28,65.45,37.47" transform="translate(-14.16 -9.04)"/><path class="cls-17" d="M285,232.11,286.2,236a42,42,0,0,0-7.64,3l-1.88-3.55a46.8,46.8,0,0,1,8.35-3.24" transform="translate(-14.16 -9.04)"/><path class="cls-18" d="M276.68,235.35l1.88,3.55a41.18,41.18,0,0,0-4.94,2.93l-2.35-3.26a42.88,42.88,0,0,1,5.41-3.22" transform="translate(-14.16 -9.04)"/><path class="cls-19" d="M271.27,238.57l2.35,3.26a38.37,38.37,0,0,0-3.61,2.82l-2.7-3a42.93,42.93,0,0,1,4-3.1" transform="translate(-14.16 -9.04)"/><path class="cls-20" d="M267.31,241.67l2.7,3a38.32,38.32,0,0,0-2.88,2.82l-3-2.7a44,44,0,0,1,3.16-3.1" transform="translate(-14.16 -9.04)"/><path class="cls-21" d="M264.15,244.77l3,2.7c-.83.9-1.62,1.84-2.36,2.81l-3.2-2.42q1.21-1.61,2.58-3.09" transform="translate(-14.16 -9.04)"/><path class="cls-22" d="M261.57,247.86l3.2,2.42c-.69.91-1.34,1.85-1.95,2.83l-3.4-2.15c.67-1.06,1.39-2.1,2.15-3.1" transform="translate(-14.16 -9.04)"/><path class="cls-23" d="M259.42,251l3.4,2.15c-.58.93-1.13,1.88-1.63,2.86l-3.56-1.86c.55-1.08,1.15-2.13,1.79-3.15" transform="translate(-14.16 -9.04)"/><path class="cls-24" d="M257.63,254.11l3.56,1.86c-.49,1-.95,1.94-1.36,2.94l-3.7-1.57c.46-1.1,1-2.18,1.5-3.23" transform="translate(-14.16 -9.04)"/><path class="cls-25" d="M256.13,257.34l3.7,1.57c-.42,1-.79,2-1.12,3.06l-3.81-1.27q.56-1.71,1.23-3.36" transform="translate(-14.16 -9.04)"/><path class="cls-26" d="M254.9,260.7l3.81,1.27c-.34,1-.63,2.12-.89,3.21l-3.89-1c.28-1.2.6-2.37,1-3.52" transform="translate(-14.16 -9.04)"/><path class="cls-27" d="M253.93,264.22l3.89,1c-.26,1.11-.47,2.25-.64,3.41l-4-.62c.19-1.27.43-2.52.71-3.75" transform="translate(-14.16 -9.04)"/><path class="cls-28" d="M253.22,268l4,.62c-.18,1.21-.3,2.44-.38,3.69l-4-.26c.08-1.37.22-2.72.41-4" transform="translate(-14.16 -9.04)"/><path class="cls-29" d="M252.81,272l4,.26c-.05.87-.07,1.76-.07,2.65,0,.38,0,.75,0,1.12l-4,.13c0-.41,0-.83,0-1.25,0-1,0-1.95.08-2.91" transform="translate(-14.16 -9.04)"/><path class="cls-30" d="M252.75,276.18l4-.13a32.84,32.84,0,0,0,.29,3.49l-4,.53c-.17-1.26-.27-2.56-.32-3.89" transform="translate(-14.16 -9.04)"/><path class="cls-31" d="M253.07,280.07l4-.53a31.29,31.29,0,0,0,.68,3.57l-3.88.93a38.69,38.69,0,0,1-.76-4" transform="translate(-14.16 -9.04)"/><path class="cls-32" d="M253.83,284l3.88-.93a31.23,31.23,0,0,0,1.35,4.1l-3.78,1.36a33.25,33.25,0,0,1-1.45-4.53" transform="translate(-14.16 -9.04)"/><path class="cls-33" d="M255.28,288.57l3.78-1.36a33.48,33.48,0,0,0,4.36,7.6L260,296.92a37,37,0,0,1-4.68-8.35" transform="translate(-14.16 -9.04)"/><path class="cls-40" d="M260,296.92l3.46-2.11a41.75,41.75,0,0,0,3.91,4.46l-3.21,2.5a45,45,0,0,1-4.16-4.85" transform="translate(-14.16 -9.04)"/><path class="cls-33" d="M264.12,301.77l3.21-2.5a71.09,71.09,0,0,0,14.09,10.53L279,313a73.74,73.74,0,0,1-14.83-11.26" transform="translate(-14.16 -9.04)"/><path class="cls-32" d="M279,313l2.47-3.23c8.14,4.82,17.68,9.09,27.64,13.42,15,6.52,31,13.19,44.59,22.11l-2.52,3.05c-13.1-8.46-28.74-15-43.66-21.49-10.13-4.39-20-8.78-28.52-13.86" transform="translate(-14.16 -9.04)"/><path class="cls-33" d="M351.13,348.38l2.52-3.05c11.53,7.58,21.34,16.8,27.34,28.95l-4,.94c-5.44-11.08-14.73-19.65-25.86-26.84" transform="translate(-14.16 -9.04)"/></g></g></g><polygon class="cls-34" points="349.31 258.62 350.96 262.62 348.42 262.62 350.59 258.62 349.31 258.62"/><g class="cls-13"><g class="cls-46"><g class="cls-13"><path class="cls-29" d="M374.19,238.37l3.58-2c.08,1,.17,2.1.25,3.24l-3.86.84c0-.89,0-1.61,0-2.1" transform="translate(-14.16 -9.04)"/><path class="cls-30" d="M374.16,240.47l3.86-.84c.19,2.52.39,5.34.58,8.49l-4,.25c-.18-3.12-.36-5.93-.41-7.9" transform="translate(-14.16 -9.04)"/></g></g></g><g class="cls-13"><g class="cls-47"><g class="cls-13"><path class="cls-15" d="M385,340.77h-4c0-15.09-.18-29.92-.5-43.88s-.78-27.05-1.32-38.69c-.19-3.69-.38-7-.57-10.08-.28-4.58-.56-8.46-.83-11.73l4-.33c.27,3.3.57,7.18.83,11.82.2,3,.4,6.39.58,10.12.54,11.68,1,24.78,1.32,38.8s.53,28.82.5,44" transform="translate(-14.16 -9.04)"/></g></g></g><g class="cls-13"><g class="cls-48"><g class="cls-13"><path class="cls-29" d="M420.37,235.29l3.91,4c-.08,3.07-1.46,61.47-1.46,91.66h-4c0-30.25,1.38-88.68,1.55-95.66" transform="translate(-14.16 -9.04)"/></g></g></g><polygon class="cls-34" points="421.4 226.24 421.4 230.24 410.12 230.24 406.21 226.24 421.4 226.24"/><g class="cls-13"><g class="cls-49"><g class="cls-13"><path class="cls-27" d="M435.55,363v-4c1.72,0,3.39,0,5-.15l.3,4c-1.74.11-3.52.16-5.34.16" transform="translate(-14.16 -9.04)"/><path class="cls-26" d="M440.89,362.8l-.3-4q3.2-.21,6.22-.64l.68,3.95q-3.21.47-6.6.68" transform="translate(-14.16 -9.04)"/><path class="cls-25" d="M447.49,362.12l-.68-3.95c1.95-.28,3.85-.64,5.69-1.06l1,3.88c-1.95.45-4,.83-6,1.13" transform="translate(-14.16 -9.04)"/><path class="cls-24" d="M453.52,361l-1-3.88c1.82-.42,3.6-.91,5.32-1.46l1.34,3.79q-2.73.88-5.64,1.55" transform="translate(-14.16 -9.04)"/><path class="cls-23" d="M459.16,359.44l-1.34-3.79q2.6-.84,5.05-1.86l1.65,3.67c-1.73.73-3.51,1.39-5.36,2" transform="translate(-14.16 -9.04)"/><path class="cls-22" d="M464.52,357.46l-1.65-3.67q2.52-1.05,4.87-2.29l2,3.52c-1.67.88-3.4,1.7-5.19,2.44" transform="translate(-14.16 -9.04)"/><path class="cls-21" d="M469.71,355l-2-3.52c1.68-.88,3.28-1.82,4.83-2.83l2.26,3.33q-2.46,1.62-5.12,3" transform="translate(-14.16 -9.04)"/><path class="cls-20" d="M474.83,352l-2.26-3.33a60,60,0,0,0,4.86-3.55l2.57,3.1a59.62,59.62,0,0,1-5.17,3.78" transform="translate(-14.16 -9.04)"/><path class="cls-19" d="M480,348.22l-2.57-3.1a59.74,59.74,0,0,0,5-4.54l2.88,2.8a60.84,60.84,0,0,1-5.28,4.84" transform="translate(-14.16 -9.04)"/><path class="cls-18" d="M485.28,343.38l-2.88-2.8a60.21,60.21,0,0,0,5.29-6.26l3.23,2.39a63.39,63.39,0,0,1-5.64,6.67" transform="translate(-14.16 -9.04)"/><path class="cls-17" d="M490.92,336.71l-3.23-2.39a60.69,60.69,0,0,0,5.81-9.76l3.6,1.75a64.77,64.77,0,0,1-6.18,10.4" transform="translate(-14.16 -9.04)"/><path class="cls-15" d="M497.1,326.31l-3.6-1.75a63.34,63.34,0,0,0,6.07-27.07c0-29.47-20.37-58.2-64-58.2v-4c46.14-.07,68,30.74,68,62.2a67.3,67.3,0,0,1-6.47,28.82" transform="translate(-14.16 -9.04)"/></g></g></g><g class="cls-13"><g class="cls-50"><g class="cls-13"><path class="cls-27" d="M449.74,224v-4q1.75,0,3.48,0l-.12,4c-1.11,0-2.23,0-3.36,0" transform="translate(-14.16 -9.04)"/><path class="cls-28" d="M453.1,224.05l.12-4q6.79.14,13,.79l-.59,4c-4-.42-8.2-.68-12.57-.77" transform="translate(-14.16 -9.04)"/><path class="cls-29" d="M465.67,224.82l.59-4q6.15.64,11.78,1.74l-1,3.91q-5.42-1-11.34-1.66" transform="translate(-14.16 -9.04)"/><path class="cls-30" d="M477,226.48l1-3.91q5.71,1.13,10.92,2.67L487.51,229q-5-1.47-10.5-2.54" transform="translate(-14.16 -9.04)"/><path class="cls-31" d="M487.51,229l1.45-3.78A99.69,99.69,0,0,1,499.39,229l-1.87,3.59a99.47,99.47,0,0,0-10-3.54" transform="translate(-14.16 -9.04)"/><path class="cls-32" d="M497.52,232.56l1.87-3.59a88.73,88.73,0,0,1,10.94,5.52L508,237.8a83.8,83.8,0,0,0-10.47-5.24" transform="translate(-14.16 -9.04)"/><path class="cls-33" d="M508,237.8l2.34-3.31a75.3,75.3,0,0,1,16.11,12.81l-3.06,2.63A71.32,71.32,0,0,0,508,237.8" transform="translate(-14.16 -9.04)"/><path class="cls-40" d="M523.38,249.93l3.06-2.63c1.6,1.69,3.1,3.44,4.49,5.23l-3.27,2.35a63.69,63.69,0,0,0-4.28-4.95" transform="translate(-14.16 -9.04)"/><path class="cls-33" d="M527.66,254.88l3.27-2.35a67.22,67.22,0,0,1,9.23,16.11l-3.74,1.46a63,63,0,0,0-8.76-15.22" transform="translate(-14.16 -9.04)"/><path class="cls-32" d="M536.42,270.1l3.74-1.46a67.31,67.31,0,0,1,2.89,9l-3.89.95a63.57,63.57,0,0,0-2.74-8.49" transform="translate(-14.16 -9.04)"/><path class="cls-31" d="M539.16,278.59l3.89-.95a70.28,70.28,0,0,1,1.4,7.45l-4,.53a65.37,65.37,0,0,0-1.32-7" transform="translate(-14.16 -9.04)"/><path class="cls-30" d="M540.48,285.62l4-.53q.45,3.44.55,6.88l-4,.13c-.07-2.16-.25-4.33-.53-6.48" transform="translate(-14.16 -9.04)"/><path class="cls-29" d="M541,292.1l4-.13c0,.75,0,1.5,0,2.24,0,1.61,0,3.19-.14,4.75l-4-.25q.12-2.22.12-4.5c0-.7,0-1.41,0-2.11" transform="translate(-14.16 -9.04)"/><path class="cls-28" d="M540.92,298.71l4,.25q-.2,3.41-.66,6.65l-4-.6q.45-3.09.64-6.3" transform="translate(-14.16 -9.04)"/><path class="cls-27" d="M540.28,305l4,.6c-.3,2.08-.69,4.12-1.15,6.11l-3.89-.93q.66-2.82,1.08-5.78" transform="translate(-14.16 -9.04)"/><path class="cls-26" d="M539.2,310.79l3.89.93q-.68,2.91-1.56,5.7l-3.82-1.22q.84-2.64,1.49-5.41" transform="translate(-14.16 -9.04)"/><path class="cls-25" d="M537.71,316.2l3.82,1.22q-.9,2.79-2,5.45l-3.73-1.5q1.05-2.52,1.91-5.17" transform="translate(-14.16 -9.04)"/><path class="cls-24" d="M535.8,321.37l3.73,1.5c-.75,1.82-1.58,3.6-2.47,5.33l-3.62-1.77c.86-1.64,1.64-3.33,2.36-5.06" transform="translate(-14.16 -9.04)"/><path class="cls-23" d="M533.44,326.43l3.62,1.77q-1.41,2.73-3,5.3l-3.48-2q1.56-2.45,2.89-5" transform="translate(-14.16 -9.04)"/><path class="cls-22" d="M530.55,331.47l3.48,2c-1.16,1.85-2.4,3.63-3.72,5.36L527,336.57q1.89-2.47,3.55-5.1" transform="translate(-14.16 -9.04)"/><path class="cls-21" d="M527,336.57l3.31,2.29q-2.19,2.88-4.65,5.55l-3.12-2.56c1.57-1.7,3.06-3.45,4.46-5.28" transform="translate(-14.16 -9.04)"/><path class="cls-20" d="M522.54,341.85l3.12,2.56a83,83,0,0,1-6,5.86l-2.86-2.85a75.51,75.51,0,0,0,5.74-5.57" transform="translate(-14.16 -9.04)"/><path class="cls-19" d="M516.8,347.42l2.86,2.85a90.29,90.29,0,0,1-8.12,6.36L509,353.49a84.35,84.35,0,0,0,7.78-6.07" transform="translate(-14.16 -9.04)"/><path class="cls-18" d="M509,353.49l2.52,3.14a100.17,100.17,0,0,1-12,7.12l-2-3.46a97.38,97.38,0,0,0,11.5-6.8" transform="translate(-14.16 -9.04)"/><path class="cls-17" d="M497.52,360.29l2,3.46a116.59,116.59,0,0,1-20.66,8L477.65,368a112.77,112.77,0,0,0,19.87-7.68" transform="translate(-14.16 -9.04)"/><path class="cls-15" d="M477.65,368l1.24,3.81a132.22,132.22,0,0,1-36.06,5,116.25,116.25,0,0,1-19.65-1.46l-4.05-4.78a126.09,126.09,0,0,0,23.7,2.24A128.69,128.69,0,0,0,477.65,368" transform="translate(-14.16 -9.04)"/></g></g></g><rect class="cls-35" x="383.93" y="210.97" width="51.65" height="4"/><g class="cls-13"><g class="cls-51"><g class="cls-13"><path class="cls-15" d="M382,223.44l-6.45-4.52.22,0,5.42,4.44.81.06" transform="translate(-14.16 -9.04)"/><path class="cls-17" d="M381.17,223.38l-5.42-4.44h0l5.35,4.44h0" transform="translate(-14.16 -9.04)"/><path class="cls-18" d="M381.13,223.38l-5.35-4.44h0l5.28,4.43h.05" transform="translate(-14.16 -9.04)"/><path class="cls-19" d="M381.08,223.37l-5.28-4.43h0l5.21,4.43h0" transform="translate(-14.16 -9.04)"/><path class="cls-20" d="M381,223.37l-5.21-4.43h0l5.14,4.43H381" transform="translate(-14.16 -9.04)"/><path class="cls-21" d="M381,223.37l-5.14-4.43h0l5.07,4.41h0" transform="translate(-14.16 -9.04)"/><path class="cls-22" d="M381,223.36,375.88,219h0l5,4.41h0" transform="translate(-14.16 -9.04)"/><path class="cls-23" d="M380.92,223.36l-5-4.41h0l4.94,4.41h0" transform="translate(-14.16 -9.04)"/><path class="cls-24" d="M380.88,223.36,375.94,219h0l4.87,4.41h0" transform="translate(-14.16 -9.04)"/><path class="cls-25" d="M380.84,223.36,376,219h0l4.8,4.39h0" transform="translate(-14.16 -9.04)"/><path class="cls-26" d="M380.81,223.35,376,219h0l4.74,4.39h0" transform="translate(-14.16 -9.04)"/><path class="cls-27" d="M380.78,223.35,376,219h0l4.68,4.39h0" transform="translate(-14.16 -9.04)"/><path class="cls-28" d="M380.75,223.35,376.07,219c2.33.18,11.34.84,18.84,1l-.05,4c-7.55-.16-16.09-.77-14.11-.62" transform="translate(-14.16 -9.04)"/><path class="cls-27" d="M394.86,224l.05-4c1.1,0,2.17,0,3.18,0v4c-1,0-2.12,0-3.23,0" transform="translate(-14.16 -9.04)"/></g></g></g><g class="cls-13"><g class="cls-52"><g class="cls-13"><path class="cls-15" d="M381.76,236.06l-4,.33c-.88-10.85-1.61-15-2-16.6l4.77.88c-.52-.33.32,4.26,1.2,15.39" transform="translate(-14.16 -9.04)"/><path class="cls-17" d="M380.56,220.67l-4.77-.88,0-.11,4.84,1,0,0" transform="translate(-14.16 -9.04)"/><path class="cls-18" d="M380.6,220.7l-4.84-1,0-.1,4.91,1.17,0-.05" transform="translate(-14.16 -9.04)"/><path class="cls-19" d="M380.65,220.75l-4.91-1.17,0-.09,5,1.33-.05-.07" transform="translate(-14.16 -9.04)"/><path class="cls-18" d="M380.7,220.82l-5-1.33,0-.12,5.1,1.58-.08-.13" transform="translate(-14.16 -9.04)"/><path class="cls-17" d="M380.78,221l-5.1-1.58a.57.57,0,0,0,0-.14l5.27,2a2.36,2.36,0,0,0-.13-.23" transform="translate(-14.16 -9.04)"/><path class="cls-15" d="M380.91,221.18l-5.27-2a1.76,1.76,0,0,0-.11-.31l6.45,4.52c-.47-1-.82-1.8-1.07-2.26" transform="translate(-14.16 -9.04)"/></g></g></g><g class="cls-13"><g class="cls-53"><g class="cls-13"><path class="cls-27" d="M306.93,218.55v-4l2,0-.06,4-1.95,0" transform="translate(-14.16 -9.04)"/><path class="cls-28" d="M308.88,218.58l.06-4c3.56.08,7.93.35,12.75.86l-.46,4c-4.65-.49-8.89-.77-12.35-.85" transform="translate(-14.16 -9.04)"/><path class="cls-29" d="M321.23,219.43l.46-4c5.59.59,11.77,1.48,17.94,2.72L338.5,222c-5.92-1.16-11.87-2-17.27-2.59" transform="translate(-14.16 -9.04)"/><path class="cls-30" d="M338.5,222l1.13-3.86A139.08,139.08,0,0,1,354.74,222l-1.83,3.57A143.79,143.79,0,0,0,338.5,222" transform="translate(-14.16 -9.04)"/><path class="cls-31" d="M352.91,225.58l1.83-3.57a81.86,81.86,0,0,1,9.59,3.69L362,228.93a83.42,83.42,0,0,0-9.06-3.35" transform="translate(-14.16 -9.04)"/><path class="cls-32" d="M362,228.93l2.36-3.23a49.35,49.35,0,0,1,6.15,3.39l-2.8,2.87a44.11,44.11,0,0,0-5.71-3" transform="translate(-14.16 -9.04)"/><path class="cls-33" d="M367.68,232l2.8-2.87a26.16,26.16,0,0,1,5.42,4.64l-3.31,2.32a22.25,22.25,0,0,0-4.91-4.09" transform="translate(-14.16 -9.04)"/><path class="cls-40" d="M372.59,236.05l3.31-2.32c.2.23.39.46.58.7l-3.39,2.23c-.16-.21-.33-.41-.5-.61" transform="translate(-14.16 -9.04)"/><path class="cls-33" d="M373.09,236.66l3.39-2.23a15,15,0,0,1,1.29,2l-3.58,2a11.78,11.78,0,0,0-1.1-1.71" transform="translate(-14.16 -9.04)"/></g></g></g><path class="cls-54" d="M306.93,218.55c17.16,0,60,5.94,67.26,19.82-.14,1.59.11,5.47.38,10-1.48,6.06-6.14,14.32-11.11,19.29h1.28c-.12-.19-24.25-37.4-65.45-37.47-26.93,0-46.57,19.19-46.56,44.74.13,27.48,26.48,39.7,54.74,52,27.6,12,57.68,24.21,69.52,48.33l-.1,57.47c-13.14,27.8-48.48,43.39-83.06,43.4-30.17,0-80.1-12.43-79.66-31.28-.06-5.24,5-13.65,7.07-17.46h-1.65c.36.41,28.75,33.83,79.33,33.83,38.18.13,51.68-20.92,51.65-42.56-.18-31.83-34.73-44.72-67.6-60.06-32.09-15-63.05-32.22-63-69.44C219.94,243.93,262.74,218.59,306.93,218.55Z" transform="translate(-14.16 -9.04)"/><path class="cls-54" d="M449.74,224c63.9.1,91.31,35.27,91.3,70.2.06,51.64-50.29,78.54-98.21,78.58a126.09,126.09,0,0,1-23.7-2.24c.42,37.65,1.51,70.91,5.4,100.75-5.38.86-12.83,3-19.9,3-11-.06-19.51-4-19.64-20.73V340.77c0-15.15-.18-30-.5-44s-.78-27.12-1.32-38.8c-.18-3.73-.38-7.08-.58-10.12-.26-4.64-.56-8.52-.83-11.82-1.24-15.68-2.4-18.38.22-12.62-6-.44,7.2.57,16.11.57ZM435.55,363c44.34,0,68-33,68-65.47,0-31.46-21.88-62.27-68-62.2H420.37c-.17,7-1.55,65.41-1.55,95.66v30.67A89.5,89.5,0,0,0,435.55,363" transform="translate(-14.16 -9.04)"/></g><path class="cls-55" d="M225.07,421.15h2.48S255.46,454,302.8,454c34.62,0,46.28-18.37,46.28-37.45,0-55.81-126.83-48.4-126.83-125.76,0-46.64,43.81-72.43,88.32-72.43,19.07,0,70.3,7.07,70.3,26.85,0,8.84-5.65,20.49-13.78,28.62h-2.47S341,237.45,303.15,237.45c-24,0-41.34,17-41.34,39.57,0,55.11,126.83,43.1,126.83,124.35,0,49.11-46.28,74.89-90.79,74.89-30,0-81.26-12-81.26-34.26C216.59,435.64,221.9,426.81,225.07,421.15Z" transform="translate(-14.16 -9.04)"/><path class="cls-55" d="M382.5,341c0-29.32-.71-57.58-1.77-80.19-1.76-34.27-3.53-38.16-3.53-38.16s13.42,1.06,21.9,1.06h50.17c64.29,0,92.56,36,92.56,72.07,0,53-51.23,80.2-99.27,80.2a112.78,112.78,0,0,1-19.08-1.42c.35,31.8,1.41,63.94,5.65,96.45-8.83,1.41-16.25,3.53-23.67,3.53-12.36,0-23-4.95-23-24Zm53,17.67c40.63,0,62.18-30,62.18-59.71,0-28.61-19.79-56.52-62.18-56.52H424.54s-1.41,59.7-1.41,89v26.5A74.27,74.27,0,0,0,435.49,358.63Z" transform="translate(-14.16 -9.04)"/></svg>